<?xml version="1.0" encoding="UTF-8"?>
<!DOCTYPE svg PUBLIC "-//W3C//DTD SVG 1.1//EN" "http://www.w3.org/Graphics/SVG/1.1/DTD/svg11.dtd">
<svg xmlns="http://www.w3.org/2000/svg" version="1.1" width="1024px" height="1024px" style="shape-rendering:geometricPrecision; text-rendering:geometricPrecision; image-rendering:optimizeQuality; fill-rule:evenodd; clip-rule:evenodd" xmlns:xlink="http://www.w3.org/1999/xlink">
<g><path style="opacity:0.099" fill="#fbfafa" d="M 199.5,205.5 C 228.125,203.436 253.792,210.936 276.5,228C 287.612,238.055 292.778,250.555 292,265.5C 288.113,280.72 278.447,289.72 263,292.5C 258.725,291.723 254.558,290.556 250.5,289C 245.391,286.111 240.057,283.778 234.5,282C 216.089,281.244 206.422,290.077 205.5,308.5C 205.696,331.064 215.363,348.231 234.5,360C 258.858,374.173 285.191,381.007 313.5,380.5C 340.897,380.212 367.564,375.712 393.5,367C 424.152,355.893 454.152,343.227 483.5,329C 528.729,304.885 574.396,281.552 620.5,259C 660.832,240.5 703.166,230.334 747.5,228.5C 832.623,232.112 894.123,271.779 932,347.5C 940.211,365.844 945.378,385.011 947.5,405C 946.585,411.748 942.918,416.248 936.5,418.5C 933.093,417.374 930.26,415.374 928,412.5C 918.087,394.335 907.421,376.668 896,359.5C 856.198,310.697 804.698,288.864 741.5,294C 666.964,302.888 614.131,341.388 583,409.5C 560.598,464.641 550.931,521.975 554,581.5C 554.789,612.601 558.789,643.267 566,673.5C 562.867,650.962 560.533,628.296 559,605.5C 553.027,542.978 561.694,482.645 585,424.5C 606.598,373.569 642.432,336.402 692.5,313C 738.42,294.143 784.42,293.809 830.5,312C 849.402,320.872 865.902,333.038 880,348.5C 909.039,382.253 927.039,421.253 934,465.5C 934.667,471.167 934.667,476.833 934,482.5C 926.659,493.312 919.659,492.978 913,481.5C 904.544,460.573 893.544,441.239 880,423.5C 855.397,393.281 823.564,376.948 784.5,374.5C 756.184,375.33 731.85,385.497 711.5,405C 683.669,435.483 664.836,470.983 655,511.5C 646.419,543.318 640.753,575.651 638,608.5C 635.5,634.163 633.5,659.83 632,685.5C 637.673,645.449 643.673,605.449 650,565.5C 655.772,531.186 665.772,498.186 680,466.5C 694.561,434.939 717.061,410.772 747.5,394C 799.406,375.519 843.572,387.019 880,428.5C 899.628,453.089 910.295,481.089 912,512.5C 908.62,519.958 903.454,521.791 896.5,518C 886.216,504.114 875.216,490.781 863.5,478C 853.705,468.767 842.371,462.101 829.5,458C 813.622,457.071 799.622,461.737 787.5,472C 776.519,482.478 767.353,494.311 760,507.5C 745.827,537.18 735.494,568.18 729,600.5C 722.14,632.94 714.807,665.274 707,697.5C 701.867,717.237 694.201,735.904 684,753.5C 679.21,759.959 674.043,766.126 668.5,772C 676.157,772.655 681.157,776.655 683.5,784C 677.259,796.576 667.925,806.243 655.5,813C 643.792,819.209 631.292,822.376 618,822.5C 576.958,818.198 536.792,809.698 497.5,797C 434.209,779.018 373.876,754.018 316.5,722C 234.811,673.978 169.311,609.478 120,528.5C 93.1498,482.265 78.9832,432.432 77.5,379C 76.8861,335.525 88.3861,295.692 112,259.5C 133.939,229.622 163.106,211.622 199.5,205.5 Z M 273.5,457.5 C 339.486,466.384 403.819,459.55 466.5,437C 479.945,432.111 493.278,426.944 506.5,421.5C 507.663,423.55 507.496,425.55 506,427.5C 437.836,461.666 366.003,473.166 290.5,462C 284.527,461.18 278.861,459.68 273.5,457.5 Z M 199.5,424.5 C 218.103,435.301 237.437,444.801 257.5,453C 235.358,449.095 216.024,439.595 199.5,424.5 Z M 214.5,517.5 C 275.438,548.854 340.105,561.688 408.5,556C 420.898,555.26 433.232,553.927 445.5,552C 459.156,549.302 472.822,546.802 486.5,544.5C 486.046,548.436 483.712,550.603 479.5,551C 436.929,560.173 393.929,563.507 350.5,561C 305.336,558.128 263.002,545.795 223.5,524C 220.079,522.301 217.079,520.135 214.5,517.5 Z M 354.5,652.5 C 355.097,651.861 355.93,651.528 357,651.5C 402.511,660.523 448.345,662.857 494.5,658.5C 499.84,659.291 500.507,661.124 496.5,664C 448.381,669.368 401.048,665.535 354.5,652.5 Z M 592.5,746.5 C 595.297,748.795 597.964,751.295 600.5,754C 603.668,756.633 607.002,756.967 610.5,755C 613.333,752.167 616.167,749.333 619,746.5C 619.667,747.833 619.667,749.167 619,750.5C 617.074,754.517 615.574,758.684 614.5,763C 615.997,768.313 618.997,772.647 623.5,776C 622.167,776.667 620.833,776.667 619.5,776C 607.491,768.829 598.491,758.995 592.5,746.5 Z"/></g>
<g><path style="opacity:0.991" fill="#0b4d31" d="M 274.5,276.5 C 266.528,280.432 258.528,280.432 250.5,276.5C 231.998,266.432 215.498,269.099 201,284.5C 194.962,294.332 192.962,304.999 195,316.5C 197.005,335.012 205.172,350.179 219.5,362C 239.631,378.161 262.631,387.494 288.5,390C 301.466,391.493 314.466,391.827 327.5,391C 342.947,389.96 358.28,388.126 373.5,385.5C 372.087,406.138 371.42,426.805 371.5,447.5C 331.531,453.336 292.197,450.502 253.5,439C 230.447,430.315 209.447,418.315 190.5,403C 162.709,378.913 148.876,348.413 149,311.5C 148.809,313.708 148.309,315.708 147.5,317.5C 146.06,320.01 145.227,324.01 145,329.5C 144.177,340.21 144.344,348.21 145.5,353.5C 147.505,375.671 155.672,395.337 170,412.5C 188.32,432.671 209.82,448.337 234.5,459.5C 239.418,462.316 244.752,464.482 250.5,466C 252.066,466.765 253.399,466.598 254.5,465.5C 271.75,470.983 289.417,474.483 307.5,476C 328.143,477.323 348.81,477.823 369.5,477.5C 369.535,500.018 369.535,522.684 369.5,545.5C 342.226,545.259 315.559,541.592 289.5,534.5C 289.938,534.565 290.272,534.399 290.5,534C 286.425,532.917 282.425,531.584 278.5,530C 279.603,528.32 279.27,526.82 277.5,525.5C 274.687,526.219 271.854,526.886 269,527.5C 253.024,521.898 237.524,515.232 222.5,507.5C 180.657,486.156 149.823,454.156 130,411.5C 128.178,405.879 126.511,400.212 125,394.5C 125.28,402.96 126.447,411.294 128.5,419.5C 127.876,419.917 127.543,420.584 127.5,421.5C 130.318,435.976 135.651,449.309 143.5,461.5C 150.106,471.441 157.106,481.108 164.5,490.5C 169.167,497.167 174.833,502.833 181.5,507.5C 216.236,536.7 255.902,556.033 300.5,565.5C 305.98,567.59 312.314,569.09 319.5,570C 322.039,570.796 324.372,570.629 326.5,569.5C 346.35,572.819 366.35,574.153 386.5,573.5C 382.018,574.326 377.351,574.826 372.5,575C 374.33,596.427 376.997,617.927 380.5,639.5C 380.197,641.114 379.53,642.448 378.5,643.5C 308.352,632.535 246.186,604.535 192,559.5C 220.429,596.085 255.595,624.419 297.5,644.5C 309.787,650.881 322.621,656.215 336,660.5C 336.765,660.43 337.265,660.097 337.5,659.5C 353.263,664.774 369.263,669.107 385.5,672.5C 388.323,683.792 391.156,695.125 394,706.5C 399.412,721.574 404.912,736.574 410.5,751.5C 410.53,752.497 410.03,753.164 409,753.5C 399.858,749.676 390.691,746.009 381.5,742.5C 324.61,718.245 273.61,685.245 228.5,643.5C 224.108,638.106 219.108,633.439 213.5,629.5C 168.545,587.917 134.212,538.917 110.5,482.5C 107.577,472.355 104.244,463.021 100.5,454.5C 89.1976,416.605 86.3643,377.938 92,338.5C 97.6464,301.706 113.48,270.206 139.5,244C 179.362,211.563 221.696,207.896 266.5,233C 278.488,242.464 282.988,254.63 280,269.5C 279.065,272.595 277.231,274.929 274.5,276.5 Z"/></g>
<g><path style="opacity:0.99" fill="#1a191a" d="M 552.5,466.5 C 551.135,467.565 550.302,469.565 550,472.5C 539.598,525.882 537.932,579.549 545,633.5C 545.494,631.866 545.66,630.199 545.5,628.5C 549.814,664.206 558.647,698.872 572,732.5C 579.38,751.127 590.547,766.961 605.5,780C 618.746,790.395 633.746,794.728 650.5,793C 659.076,790.629 666.909,786.795 674,781.5C 674.667,782.167 674.667,782.833 674,783.5C 659.39,802.47 640.056,811.47 616,810.5C 596.575,809.534 577.408,806.701 558.5,802C 508.014,790.004 458.681,774.504 410.5,755.5C 412.836,754.406 412.836,753.073 410.5,751.5C 404.912,736.574 399.412,721.574 394,706.5C 391.156,695.125 388.323,683.792 385.5,672.5C 421.027,677.626 456.693,678.792 492.5,676C 500.378,675.394 508.044,674.061 515.5,672C 513.263,663.554 511.097,655.054 509,646.5C 508.275,645.941 507.442,645.608 506.5,645.5C 463.729,651.275 421.062,650.609 378.5,643.5C 379.53,642.448 380.197,641.114 380.5,639.5C 376.997,617.927 374.33,596.427 372.5,575C 377.351,574.826 382.018,574.326 386.5,573.5C 424.34,572.023 461.673,566.856 498.5,558C 499.325,548.229 499.991,538.396 500.5,528.5C 469.373,537.021 437.706,542.521 405.5,545C 393.505,545.5 381.505,545.667 369.5,545.5C 369.535,522.684 369.535,500.018 369.5,477.5C 420.845,472.123 469.678,458.123 516,435.5C 520.53,422.239 526.03,409.406 532.5,397C 491.86,417.44 449.194,432.773 404.5,443C 393.551,444.936 382.551,446.436 371.5,447.5C 371.42,426.805 372.087,406.138 373.5,385.5C 402.635,375.775 431.302,364.608 459.5,352C 511.114,326.527 562.447,300.527 613.5,274C 649.267,256.523 686.933,245.523 726.5,241C 790.768,235.526 845.268,255.692 890,301.5C 917.098,332.442 932.765,368.442 937,409.5C 924.004,378.518 905.504,351.351 881.5,328C 839.938,291.705 791.604,276.705 736.5,283C 669.542,292.373 618.708,325.873 584,383.5C 569.822,409.88 559.322,437.547 552.5,466.5 Z"/></g>
<g><path style="opacity:0.633" fill="#082812" d="M 250.5,276.5 C 258.528,280.432 266.528,280.432 274.5,276.5C 271.49,279.871 267.656,281.205 263,280.5C 258.105,281.034 253.939,279.701 250.5,276.5 Z"/></g>
<g><path style="opacity:0.996" fill="#9b1929" d="M 570.5,538.5 C 570.335,541.518 570.502,544.518 571,547.5C 571.687,530.007 573.687,512.674 577,495.5C 577.649,498.937 578.149,499.104 578.5,496C 577.322,490.003 577.989,484.17 580.5,478.5C 580.457,477.584 580.124,476.917 579.5,476.5C 579.328,475.508 579.662,474.842 580.5,474.5C 581.896,471.817 583.563,468.651 585.5,465C 590.807,438.699 601.14,414.365 616.5,392C 616.272,391.601 615.938,391.435 615.5,391.5C 646.974,343.295 691.64,316.128 749.5,310C 806.242,305.665 851.408,326.165 885,371.5C 903.612,397.736 915.946,426.736 922,458.5C 923.413,466.129 924.08,473.796 924,481.5C 911.397,444.924 890.23,414.424 860.5,390C 796.052,347.778 738.885,355.945 689,414.5C 669.368,441.1 655.035,470.433 646,502.5C 641.035,521.025 636.702,539.692 633,558.5C 627.1,605.768 621.767,653.101 617,700.5C 614.846,716.427 611.513,732.094 607,747.5C 596.616,730.361 588.949,712.027 584,692.5C 571.494,641.723 566.994,590.39 570.5,538.5 Z"/></g>
<g><path style="opacity:0.7" fill="#06220c" d="M 147.5,317.5 C 146.036,329.449 145.369,341.449 145.5,353.5C 144.344,348.21 144.177,340.21 145,329.5C 145.227,324.01 146.06,320.01 147.5,317.5 Z"/></g>
<g><path style="opacity:0.109" fill="#fafbfb" d="M 371.5,447.5 C 382.551,446.436 393.551,444.936 404.5,443C 449.194,432.773 491.86,417.44 532.5,397C 526.03,409.406 520.53,422.239 516,435.5C 469.678,458.123 420.845,472.123 369.5,477.5C 348.81,477.823 328.143,477.323 307.5,476C 289.417,474.483 271.75,470.983 254.5,465.5C 247.762,463.698 241.095,461.698 234.5,459.5C 209.82,448.337 188.32,432.671 170,412.5C 155.672,395.337 147.505,375.671 145.5,353.5C 145.369,341.449 146.036,329.449 147.5,317.5C 148.309,315.708 148.809,313.708 149,311.5C 148.876,348.413 162.709,378.913 190.5,403C 209.447,418.315 230.447,430.315 253.5,439C 292.197,450.502 331.531,453.336 371.5,447.5 Z M 273.5,457.5 C 278.861,459.68 284.527,461.18 290.5,462C 366.003,473.166 437.836,461.666 506,427.5C 507.496,425.55 507.663,423.55 506.5,421.5C 493.278,426.944 479.945,432.111 466.5,437C 403.819,459.55 339.486,466.384 273.5,457.5 Z M 199.5,424.5 C 216.024,439.595 235.358,449.095 257.5,453C 237.437,444.801 218.103,435.301 199.5,424.5 Z"/></g>
<g><path style="opacity:0.995" fill="#9b1929" d="M 664.5,551.5 C 664.369,552.239 664.536,552.906 665,553.5C 671.457,518.957 682.957,486.29 699.5,455.5C 699.376,454.893 699.043,454.56 698.5,454.5C 711.498,431.67 729.831,414.504 753.5,403C 789.29,390.307 822.623,394.973 853.5,417C 876.397,436.932 891.563,461.766 899,491.5C 900.994,498.126 902.328,504.793 903,511.5C 890.708,490.54 874.875,472.707 855.5,458C 831.775,442.217 808.442,442.884 785.5,460C 770.699,472.128 758.866,486.628 750,503.5C 743.024,517.427 737.024,531.76 732,546.5C 726.199,566.704 720.866,587.037 716,607.5C 710.14,635.939 703.807,664.273 697,692.5C 691.522,715.11 682.522,736.11 670,755.5C 656.879,770.882 641.712,773.549 624.5,763.5C 628.414,757.67 631.247,751.337 633,744.5C 635.315,735.905 637.315,727.239 639,718.5C 645.839,675.626 651.839,632.626 657,589.5C 658.98,576.595 661.48,563.929 664.5,551.5 Z"/></g>
<g><path style="opacity:0.111" fill="#fafbfb" d="M 222.5,507.5 C 243.302,520.06 265.635,529.06 289.5,534.5C 315.559,541.592 342.226,545.259 369.5,545.5C 381.505,545.667 393.505,545.5 405.5,545C 437.706,542.521 469.373,537.021 500.5,528.5C 499.991,538.396 499.325,548.229 498.5,558C 461.673,566.856 424.34,572.023 386.5,573.5C 366.35,574.153 346.35,572.819 326.5,569.5C 317.798,568.383 309.132,567.05 300.5,565.5C 255.902,556.033 216.236,536.7 181.5,507.5C 176.167,501.5 170.5,495.833 164.5,490.5C 157.106,481.108 150.106,471.441 143.5,461.5C 136.52,448.226 131.52,434.226 128.5,419.5C 126.447,411.294 125.28,402.96 125,394.5C 126.511,400.212 128.178,405.879 130,411.5C 149.823,454.156 180.657,486.156 222.5,507.5 Z M 214.5,517.5 C 217.079,520.135 220.079,522.301 223.5,524C 263.002,545.795 305.336,558.128 350.5,561C 393.929,563.507 436.929,560.173 479.5,551C 483.712,550.603 486.046,548.436 486.5,544.5C 472.822,546.802 459.156,549.302 445.5,552C 433.232,553.927 420.898,555.26 408.5,556C 340.105,561.688 275.438,548.854 214.5,517.5 Z"/></g>
<g><path style="opacity:0.612" fill="#8d1315" d="M 615.5,391.5 C 615.938,391.435 616.272,391.601 616.5,392C 601.14,414.365 590.807,438.699 585.5,465C 583.563,468.651 581.896,471.817 580.5,474.5C 586.942,444.471 598.609,416.805 615.5,391.5 Z"/></g>
<g><path style="opacity:0.6" fill="#0d2f1a" d="M 128.5,419.5 C 131.52,434.226 136.52,448.226 143.5,461.5C 135.651,449.309 130.318,435.976 127.5,421.5C 127.543,420.584 127.876,419.917 128.5,419.5 Z"/></g>
<g><path style="opacity:0.694" fill="#052912" d="M 110.5,482.5 C 106.201,473.61 102.868,464.276 100.5,454.5C 104.244,463.021 107.577,472.355 110.5,482.5 Z"/></g>
<g><path style="opacity:0.592" fill="#082913" d="M 234.5,459.5 C 241.095,461.698 247.762,463.698 254.5,465.5C 253.399,466.598 252.066,466.765 250.5,466C 244.752,464.482 239.418,462.316 234.5,459.5 Z"/></g>
<g><path style="opacity:0.657" fill="#8d1414" d="M 698.5,454.5 C 699.043,454.56 699.376,454.893 699.5,455.5C 682.957,486.29 671.457,518.957 665,553.5C 664.536,552.906 664.369,552.239 664.5,551.5C 670.28,517.156 681.614,484.823 698.5,454.5 Z"/></g>
<g><path style="opacity:0.722" fill="#042811" d="M 164.5,490.5 C 170.5,495.833 176.167,501.5 181.5,507.5C 174.833,502.833 169.167,497.167 164.5,490.5 Z"/></g>
<g><path style="opacity:0.843" fill="#901818" d="M 579.5,476.5 C 580.124,476.917 580.457,477.584 580.5,478.5C 577.989,484.17 577.322,490.003 578.5,496C 578.149,499.104 577.649,498.937 577,495.5C 573.687,512.674 571.687,530.007 571,547.5C 570.502,544.518 570.335,541.518 570.5,538.5C 571.076,517.465 574.076,496.798 579.5,476.5 Z"/></g>
<g><path style="opacity:0.66" fill="#0a0909" d="M 552.5,466.5 C 543.889,506.72 540.722,547.387 543,588.5C 543.786,601.841 544.62,615.174 545.5,628.5C 545.66,630.199 545.494,631.866 545,633.5C 537.932,579.549 539.598,525.882 550,472.5C 550.302,469.565 551.135,467.565 552.5,466.5 Z"/></g>
<g><path style="opacity:0.894" fill="#0e3922" d="M 222.5,507.5 C 237.524,515.232 253.024,521.898 269,527.5C 271.854,526.886 274.687,526.219 277.5,525.5C 279.27,526.82 279.603,528.32 278.5,530C 282.425,531.584 286.425,532.917 290.5,534C 290.272,534.399 289.938,534.565 289.5,534.5C 265.635,529.06 243.302,520.06 222.5,507.5 Z"/></g>
<g><path style="opacity:0.725" fill="#082613" d="M 300.5,565.5 C 309.132,567.05 317.798,568.383 326.5,569.5C 324.372,570.629 322.039,570.796 319.5,570C 312.314,569.09 305.98,567.59 300.5,565.5 Z"/></g>
<g><path style="opacity:0.118" fill="#fafbfb" d="M 378.5,643.5 C 421.062,650.609 463.729,651.275 506.5,645.5C 507.442,645.608 508.275,645.941 509,646.5C 511.097,655.054 513.263,663.554 515.5,672C 508.044,674.061 500.378,675.394 492.5,676C 456.693,678.792 421.027,677.626 385.5,672.5C 369.263,669.107 353.263,664.774 337.5,659.5C 324.005,654.891 310.671,649.891 297.5,644.5C 255.595,624.419 220.429,596.085 192,559.5C 246.186,604.535 308.352,632.535 378.5,643.5 Z M 354.5,652.5 C 401.048,665.535 448.381,669.368 496.5,664C 500.507,661.124 499.84,659.291 494.5,658.5C 448.345,662.857 402.511,660.523 357,651.5C 355.93,651.528 355.097,651.861 354.5,652.5 Z"/></g>
<g><path style="opacity:0.725" fill="#0d2a17" d="M 213.5,629.5 C 219.108,633.439 224.108,638.106 228.5,643.5C 222.892,639.561 217.892,634.894 213.5,629.5 Z"/></g>
<g><path style="opacity:0.592" fill="#092a15" d="M 297.5,644.5 C 310.671,649.891 324.005,654.891 337.5,659.5C 337.265,660.097 336.765,660.43 336,660.5C 322.621,656.215 309.787,650.881 297.5,644.5 Z"/></g>
<g><path style="opacity:0.686" fill="#102c1a" d="M 381.5,742.5 C 390.691,746.009 399.858,749.676 409,753.5C 410.03,753.164 410.53,752.497 410.5,751.5C 412.836,753.073 412.836,754.406 410.5,755.5C 400.51,751.732 390.843,747.399 381.5,742.5 Z"/></g>
</svg>
